{
    "asset" : {
        "generator" : "Khronos glTF Blender I/O v1.6.16",
        "version" : "2.0"
    },
    "extensionsUsed" : [
        "KHR_materials_unlit"
    ],
    "scene" : 0,
    "scenes" : [
        {
            "name" : "Scene",
            "nodes" : [
                9
            ]
        }
    ],
    "nodes" : [
        {
            "mesh" : 0,
            "name" : "Box002_default_0",
            "rotation" : [
                1,
                0,
                0,
                0
            ]
        },
        {
            "children" : [
                0
            ],
            "name" : "Box002",
            "rotation" : [
                1,
                0,
                0,
                7.105428204633949e-15
            ]
        },
        {
            "mesh" : 1,
            "name" : "Group18985_default_0",
            "rotation" : [
                1,
                0,
                0,
                0
            ]
        },
        {
            "children" : [
                2
            ],
            "name" : "Group18985",
            "rotation" : [
                1,
                0,
                0,
                7.105428204633949e-15
            ]
        },
        {
            "mesh" : 2,
            "name" : "Object001_default_0",
            "rotation" : [
                1,
                0,
                0,
                0
            ]
        },
        {
            "children" : [
                4
            ],
            "name" : "Object001",
            "rotation" : [
                1,
                0,
                0,
                7.105428204633949e-15
            ]
        },
        {
            "children" : [
                1,
                3,
                5
            ],
            "name" : "RootNode",
            "rotation" : [
                1,
                0,
                0,
                0
            ]
        },
        {
            "children" : [
                6
            ],
            "name" : "1.FBX",
            "rotation" : [
                1,
                0,
                0,
                0
            ]
        },
        {
            "children" : [
                7
            ],
            "name" : "RootNode (model correction matrix)",
            "rotation" : [
                0.7071068286895752,
                0,
                0,
                0.7071068286895752
            ]
        },
        {
            "children" : [
                8
            ],
            "name" : "RootNode (gltf orientation matrix)",
            "rotation" : [
                1,
                0,
                0,
                0
            ]
        }
    ],
    "materials" : [
        {
            "doubleSided" : true,
            "extensions" : {
                "KHR_materials_unlit" : {}
            },
            "name" : "default",
            "pbrMetallicRoughness" : {
                "baseColorTexture" : {
                    "index" : 0
                },
                "metallicFactor" : 0,
                "roughnessFactor" : 0.9
            }
        }
    ],
    "meshes" : [
        {
            "name" : "Box002_default_0",
            "primitives" : [
                {
                    "attributes" : {
                        "POSITION" : 0,
                        "NORMAL" : 1,
                        "TEXCOORD_0" : 2
                    },
                    "indices" : 3,
                    "material" : 0
                }
            ]
        },
        {
            "name" : "Group18985_default_0",
            "primitives" : [
                {
                    "attributes" : {
                        "POSITION" : 4,
                        "NORMAL" : 5,
                        "TEXCOORD_0" : 6
                    },
                    "indices" : 7,
                    "material" : 0
                }
            ]
        },
        {
            "name" : "Object001_default_0",
            "primitives" : [
                {
                    "attributes" : {
                        "POSITION" : 8,
                        "NORMAL" : 9,
                        "TEXCOORD_0" : 10
                    },
                    "indices" : 11,
                    "material" : 0
                }
            ]
        }
    ],
    "textures" : [
        {
            "sampler" : 0,
            "source" : 0
        }
    ],
    "images" : [
        {
            "mimeType" : "image/png",
            "name" : "default_baseColor",
            "uri" : "default_baseColor.png"
        }
    ],
    "accessors" : [
        {
            "bufferView" : 0,
            "componentType" : 5126,
            "count" : 2145,
            "max" : [
                0.4604490101337433,
                1.4105160236358643,
                0.3757419288158417
            ],
            "min" : [
                -0.4604490101337433,
                -0.3642579913139343,
                -1.0053009986877441
            ],
            "type" : "VEC3"
        },
        {
            "bufferView" : 1,
            "componentType" : 5126,
            "count" : 2145,
            "type" : "VEC3"
        },
        {
            "bufferView" : 2,
            "componentType" : 5126,
            "count" : 2145,
            "type" : "VEC2"
        },
        {
            "bufferView" : 3,
            "componentType" : 5123,
            "count" : 11124,
            "type" : "SCALAR"
        },
        {
            "bufferView" : 4,
            "componentType" : 5126,
            "count" : 272,
            "max" : [
                0.31733599305152893,
                0.47673898935317993,
                -0.0806410014629364
            ],
            "min" : [
                -0.31733599305152893,
                -0.058437999337911606,
                -0.5076500177383423
            ],
            "type" : "VEC3"
        },
        {
            "bufferView" : 5,
            "componentType" : 5126,
            "count" : 272,
            "type" : "VEC3"
        },
        {
            "bufferView" : 6,
            "componentType" : 5126,
            "count" : 272,
            "type" : "VEC2"
        },
        {
            "bufferView" : 7,
            "componentType" : 5123,
            "count" : 1152,
            "type" : "SCALAR"
        },
        {
            "bufferView" : 8,
            "componentType" : 5126,
            "count" : 130,
            "max" : [
                0.1959719955921173,
                -0.12931400537490845,
                0.05310700088739395
            ],
            "min" : [
                -0.1959719955921173,
                -0.20747999846935272,
                -0.10322500020265579
            ],
            "type" : "VEC3"
        },
        {
            "bufferView" : 9,
            "componentType" : 5126,
            "count" : 130,
            "type" : "VEC3"
        },
        {
            "bufferView" : 10,
            "componentType" : 5126,
            "count" : 130,
            "type" : "VEC2"
        },
        {
            "bufferView" : 11,
            "componentType" : 5123,
            "count" : 672,
            "type" : "SCALAR"
        }
    ],
    "bufferViews" : [
        {
            "buffer" : 0,
            "byteLength" : 25740,
            "byteOffset" : 0
        },
        {
            "buffer" : 0,
            "byteLength" : 25740,
            "byteOffset" : 25740
        },
        {
            "buffer" : 0,
            "byteLength" : 17160,
            "byteOffset" : 51480
        },
        {
            "buffer" : 0,
            "byteLength" : 22248,
            "byteOffset" : 68640
        },
        {
            "buffer" : 0,
            "byteLength" : 3264,
            "byteOffset" : 90888
        },
        {
            "buffer" : 0,
            "byteLength" : 3264,
            "byteOffset" : 94152
        },
        {
            "buffer" : 0,
            "byteLength" : 2176,
            "byteOffset" : 97416
        },
        {
            "buffer" : 0,
            "byteLength" : 2304,
            "byteOffset" : 99592
        },
        {
            "buffer" : 0,
            "byteLength" : 1560,
            "byteOffset" : 101896
        },
        {
            "buffer" : 0,
            "byteLength" : 1560,
            "byteOffset" : 103456
        },
        {
            "buffer" : 0,
            "byteLength" : 1040,
            "byteOffset" : 105016
        },
        {
            "buffer" : 0,
            "byteLength" : 1344,
            "byteOffset" : 106056
        }
    ],
    "samplers" : [
        {
            "magFilter" : 9729,
            "minFilter" : 9987
        }
    ],
    "buffers" : [
        {
            "byteLength" : 107400,
            "uri" : "scene.bin"
        }
    ]
}
